{
  "accessors": [
    {
      "bufferView": 2,
      "componentType": 5126,
      "count": 2142,
      "max": [
        111.97720336914063,
        102.22760009765625,
        153.35279846191406
      ],
      "min": [
        -114.79399871826172,
        -101.08550262451172,
        -151.74020385742188
      ],
      "type": "VEC3"
    },
    {
      "bufferView": 2,
      "byteOffset": 25704,
      "componentType": 5126,
      "count": 2142,
      "max": [
        0.9997789263725281,
        0.9997751116752625,
        0.9994836449623108
      ],
      "min": [
        -0.9996759295463562,
        -0.9998875856399536,
        -0.9964540600776672
      ],
      "type": "VEC3"
    },
    {
      "bufferView": 3,
      "componentType": 5126,
      "count": 2142,
      "max": [
        0.9991031885147095,
        0.999697208404541,
        0.9998037815093994,
        1.0
      ],
      "min": [
        -0.9974687099456787,
        -0.998729944229126,
        -0.999173641204834,
        -1.0
      ],
      "type": "VEC4"
    },
    {
      "bufferView": 1,
      "componentType": 5126,
      "count": 2142,
      "max": [
        0.9868999719619751,
        0.987500011920929
      ],
      "min": [
        0.009499999694526196,
        0.004900000058114529
      ],
      "type": "VEC2"
    },
    {
      "bufferView": 0,
      "componentType": 5125,
      "count": 11178,
      "type": "SCALAR"
    },
    {
      "bufferView": 2,
      "byteOffset": 51408,
      "componentType": 5126,
      "count": 416,
      "max": [
        111.26170349121094,
        60.31290054321289,
        19.561899185180664
      ],
      "min": [
        -68.07260131835938,
        -102.59929656982422,
        -128.70849609375
      ],
      "type": "VEC3"
    },
    {
      "bufferView": 2,
      "byteOffset": 56400,
      "componentType": 5126,
      "count": 416,
      "max": [
        0.9642660617828369,
        0.9817015528678894,
        0.5501648187637329
      ],
      "min": [
        -0.9258795380592346,
        -0.9949848055839539,
        -0.8985010981559753
      ],
      "type": "VEC3"
    },
    {
      "bufferView": 1,
      "byteOffset": 17136,
      "componentType": 5126,
      "count": 416,
      "max": [
        0.7522000074386597,
        0.996999979019165
      ],
      "min": [
        0.01640000008046627,
        0.03790000081062317
      ],
      "type": "VEC2"
    },
    {
      "bufferView": 0,
      "byteOffset": 44712,
      "componentType": 5125,
      "count": 420,
      "type": "SCALAR"
    },
    {
      "bufferView": 2,
      "byteOffset": 61392,
      "componentType": 5126,
      "count": 3376,
      "max": [
        109.73310089111328,
        58.6879997253418,
        23.178300857543945
      ],
      "min": [
        -69.20500183105469,
        -101.55599975585938,
        -146.39230346679688
      ],
      "type": "VEC3"
    },
    {
      "bufferView": 2,
      "byteOffset": 101904,
      "componentType": 5126,
      "count": 3376,
      "max": [
        0.9989977478981018,
        0.9996959567070007,
        0.9998600482940674
      ],
      "min": [
        -0.9988279342651367,
        -0.9991812705993652,
        -0.9996955990791321
      ],
      "type": "VEC3"
    },
    {
      "bufferView": 1,
      "byteOffset": 20464,
      "componentType": 5126,
      "count": 3376,
      "max": [
        0.9883999824523926,
        0.9746999740600586
      ],
      "min": [
        0.02329999953508377,
        0.009399999864399433
      ],
      "type": "VEC2"
    },
    {
      "bufferView": 0,
      "byteOffset": 46392,
      "componentType": 5125,
      "count": 17028,
      "type": "SCALAR"
    },
    {
      "bufferView": 2,
      "byteOffset": 142416,
      "componentType": 5126,
      "count": 207,
      "max": [
        83.19409942626953,
        63.11989974975586,
        -41.96630096435547
      ],
      "min": [
        24.287200927734375,
        34.52579879760742,
        -101.44709777832031
      ],
      "type": "VEC3"
    },
    {
      "bufferView": 2,
      "byteOffset": 144900,
      "componentType": 5126,
      "count": 207,
      "max": [
        0.9372918605804443,
        0.9895450472831726,
        0.9402167797088623
      ],
      "min": [
        -0.9268552660942078,
        -0.997959315776825,
        -0.960826575756073
      ],
      "type": "VEC3"
    },
    {
      "bufferView": 1,
      "byteOffset": 47472,
      "componentType": 5126,
      "count": 207,
      "max": [
        0.2653999924659729,
        0.6330999732017517
      ],
      "min": [
        0.15070000290870667,
        0.4004000127315521
      ],
      "type": "VEC2"
    },
    {
      "bufferView": 0,
      "byteOffset": 114504,
      "componentType": 5125,
      "count": 1008,
      "type": "SCALAR"
    },
    {
      "bufferView": 2,
      "byteOffset": 147384,
      "componentType": 5126,
      "count": 2051,
      "max": [
        108.54750061035156,
        68.06559753417969,
        19.042299270629883
      ],
      "min": [
        -67.53949737548828,
        -101.693603515625,
        -140.72430419921875
      ],
      "type": "VEC3"
    },
    {
      "bufferView": 2,
      "byteOffset": 171996,
      "componentType": 5126,
      "count": 2051,
      "max": [
        0.9979984760284424,
        0.9977708458900452,
        0.9999266862869263
      ],
      "min": [
        -0.9959283471107483,
        -0.9984689354896545,
        -0.9999678134918213
      ],
      "type": "VEC3"
    },
    {
      "bufferView": 1,
      "byteOffset": 49128,
      "componentType": 5126,
      "count": 2051,
      "max": [
        0.9739000201225281,
        0.9433000087738037
      ],
      "min": [
        0.043699998408555984,
        0.043699998408555984
      ],
      "type": "VEC2"
    },
    {
      "bufferView": 0,
      "byteOffset": 118536,
      "componentType": 5125,
      "count": 10224,
      "type": "SCALAR"
    }
  ],
  "asset": {
    "extras": {
      "author": "sammite (https://sketchfab.com/sammite86)",
      "license": "CC-BY-4.0 (http://creativecommons.org/licenses/by/4.0/)",
      "source": "https://sketchfab.com/3d-models/human-heart-bc51630b88b94f5fb6bdaef1488041c3",
      "title": "human heart"
    },
    "generator": "Sketchfab-12.67.0",
    "version": "2.0"
  },
  "bufferViews": [
    {
      "buffer": 0,
      "byteLength": 159432,
      "name": "floatBufferViews",
      "target": 34963
    },
    {
      "buffer": 0,
      "byteLength": 65536,
      "byteOffset": 159432,
      "byteStride": 8,
      "name": "floatBufferViews",
      "target": 34962
    },
    {
      "buffer": 0,
      "byteLength": 196608,
      "byteOffset": 224968,
      "byteStride": 12,
      "name": "floatBufferViews",
      "target": 34962
    },
    {
      "buffer": 0,
      "byteLength": 34272,
      "byteOffset": 421576,
      "byteStride": 16,
      "name": "floatBufferViews",
      "target": 34962
    }
  ],
  "buffers": [
    {
      "byteLength": 455848,
      "uri": "scene.bin"
    }
  ],
  "images": [
    {
      "uri": "textures/Material__12_baseColor.png"
    },
    {
      "uri": "textures/Material__12_emissive.png"
    },
    {
      "uri": "textures/Material__24_baseColor.png"
    },
    {
      "uri": "textures/Material__24_emissive.png"
    },
    {
      "uri": "textures/Material__37_baseColor.png"
    },
    {
      "uri": "textures/Material__37_normal.png"
    }
  ],
  "materials": [
    {
      "alphaMode": "BLEND",
      "doubleSided": true,
      "emissiveTexture": {
        "index": 1
      },
      "name": "Material__12",
      "pbrMetallicRoughness": {
        "baseColorTexture": {
          "index": 0
        },
        "metallicFactor": 0.0,
        "roughnessFactor": 0.6
      }
    },
    {
      "alphaMode": "BLEND",
      "doubleSided": true,
      "emissiveTexture": {
        "index": 3
      },
      "name": "Material__24",
      "pbrMetallicRoughness": {
        "baseColorTexture": {
          "index": 2
        },
        "metallicFactor": 0.0,
        "roughnessFactor": 0.6
      }
    },
    {
      "doubleSided": true,
      "emissiveTexture": {
        "index": 4
      },
      "name": "Material__37",
      "normalTexture": {
        "index": 5
      },
      "pbrMetallicRoughness": {
        "baseColorTexture": {
          "index": 4
        },
        "metallicFactor": 0.0,
        "roughnessFactor": 0.6
      }
    }
  ],
  "meshes": [
    {
      "name": "Object_0",
      "primitives": [
        {
          "attributes": {
            "NORMAL": 1,
            "POSITION": 0,
            "TANGENT": 2,
            "TEXCOORD_0": 3
          },
          "indices": 4,
          "material": 2,
          "mode": 4
        }
      ]
    },
    {
      "name": "Object_1",
      "primitives": [
        {
          "attributes": {
            "NORMAL": 6,
            "POSITION": 5,
            "TEXCOORD_0": 7
          },
          "indices": 8,
          "material": 0,
          "mode": 4
        }
      ]
    },
    {
      "name": "Object_2",
      "primitives": [
        {
          "attributes": {
            "NORMAL": 10,
            "POSITION": 9,
            "TEXCOORD_0": 11
          },
          "indices": 12,
          "material": 0,
          "mode": 4
        }
      ]
    },
    {
      "name": "Object_3",
      "primitives": [
        {
          "attributes": {
            "NORMAL": 14,
            "POSITION": 13,
            "TEXCOORD_0": 15
          },
          "indices": 16,
          "material": 1,
          "mode": 4
        }
      ]
    },
    {
      "name": "Object_4",
      "primitives": [
        {
          "attributes": {
            "NORMAL": 18,
            "POSITION": 17,
            "TEXCOORD_0": 19
          },
          "indices": 20,
          "material": 1,
          "mode": 4
        }
      ]
    }
  ],
  "nodes": [
    {
      "children": [
        1
      ],
      "matrix": [
        1.0,
        0.0,
        0.0,
        0.0,
        0.0,
        2.220446049250313e-16,
        -1.0,
        0.0,
        0.0,
        1.0,
        2.220446049250313e-16,
        0.0,
        0.0,
        0.0,
        0.0,
        1.0
      ],
      "name": "Sketchfab_model"
    },
    {
      "children": [
        2,
        3,
        4,
        5,
        6
      ],
      "name": "human heart.obj.cleaner"
    },
    {
      "mesh": 0,
      "name": "Object_2"
    },
    {
      "mesh": 1,
      "name": "Object_3"
    },
    {
      "mesh": 2,
      "name": "Object_4"
    },
    {
      "mesh": 3,
      "name": "Object_5"
    },
    {
      "mesh": 4,
      "name": "Object_6"
    }
  ],
  "samplers": [
    {
      "magFilter": 9729,
      "minFilter": 9987,
      "wrapS": 10497,
      "wrapT": 10497
    }
  ],
  "scene": 0,
  "scenes": [
    {
      "name": "Sketchfab_Scene",
      "nodes": [
        0
      ]
    }
  ],
  "textures": [
    {
      "sampler": 0,
      "source": 0
    },
    {
      "sampler": 0,
      "source": 1
    },
    {
      "sampler": 0,
      "source": 2
    },
    {
      "sampler": 0,
      "source": 3
    },
    {
      "sampler": 0,
      "source": 4
    },
    {
      "sampler": 0,
      "source": 5
    }
  ]
}
